# xmcd
#
# Track frame offsets:
#	225
#	11850
#	24021
#	36172
#	49755
#	62298
#	74214
#	82877
#	90297
#	110589
#	122105
#	135000
#	146340
#	163686
#	175903
#	191060
#	204483
#
# Disc length: 2875 seconds
#
# Revision: 1
# Processed by: cddbd v1.5.1PL0 Copyright (c) Steve Scherf et al.
# Submitted via: audiograbber 1.83.01
#
DISCID=dd0b3811
DTITLE=Pacifik - Master Serie
DYEAR=1900
DGENRE=
TTITLE0=Koukej se hnout
TTITLE1=Uniformy
TTITLE2=Orinoko
TTITLE3=Vrbový proutí
TTITLE4=Kreolská dívka
TTITLE5=Nas bozi chram
TTITLE6=Hrozive cerne hory
TTITLE7=Zizen
TTITLE8=Maly velky muz
TTITLE9=Znam vitr
TTITLE10=Velrybarska vyprava
TTITLE11=Dal,dal,dal
TTITLE12=Svareny vino
TTITLE13=Uz jen chvili
TTITLE14=Mlinky
TTITLE15=Pisen orla
TTITLE16=Zebrinak
EXTD=
EXTT0=
EXTT1=
EXTT2=
EXTT3=
EXTT4=
EXTT5=
EXTT6=
EXTT7=
EXTT8=
EXTT9=
EXTT10=
EXTT11=
EXTT12=
EXTT13=
EXTT14=
EXTT15=
EXTT16=
PLAYORDER=
